<svg width="17" height="20" viewBox="0 0 17 20" fill="none" xmlns="http://www.w3.org/2000/svg">
<path fill-rule="evenodd" clip-rule="evenodd" d="M15.279 12.4467C15.6705 12.0367 15.0829 11.4216 14.6914 11.8316L9.04548 17.7393C8.88279 17.9094 8.74833 17.8496 8.74833 17.6112L8.74833 0.834123C8.74833 0.718986 8.70458 0.608566 8.6267 0.52715C8.54882 0.445737 8.44319 0.399999 8.33305 0.399999C8.22292 0.399999 8.11729 0.445737 8.03941 0.52715C7.96153 0.608566 7.91778 0.718986 7.91778 0.834123L7.91778 17.6088C7.91778 17.8504 7.78777 17.9094 7.62062 17.737L1.97468 11.8293C1.58318 11.4193 0.994816 12.0343 1.38706 12.4444L7.45645 18.8196C7.61914 18.9904 7.56194 19.1302 7.33536 19.1302L0.415365 19.1302C0.305031 19.1302 0.199215 19.176 0.121197 19.2576C0.0431786 19.3391 -0.000652276 19.4498 -0.000652284 19.5651C-0.000652292 19.6804 0.0431786 19.7911 0.121197 19.8726C0.199215 19.9542 0.305031 20 0.415365 20L16.25 20C16.3603 20 16.4661 19.9542 16.5442 19.8726C16.6222 19.7911 16.666 19.6804 16.666 19.5651C16.666 19.4498 16.6222 19.3391 16.5442 19.2576C16.4661 19.176 16.3603 19.1302 16.25 19.1302L9.34115 19.1302C9.11234 19.1302 9.05885 18.9904 9.22006 18.8196L15.279 12.4467Z" fill="white"/>
</svg>
