<svg width="26" height="16" viewBox="0 0 26 16" fill="none" xmlns="http://www.w3.org/2000/svg">
<path fill-rule="evenodd" clip-rule="evenodd" d="M16.2886 1.88059C15.7614 1.53803 14.9706 2.0522 15.4978 2.39476L23.0934 7.33496C23.3121 7.47732 23.2352 7.59497 22.9286 7.59497L1.35816 7.59497C1.21012 7.59497 1.06815 7.63325 0.963478 7.7014C0.858802 7.76954 0.799997 7.86196 0.799997 7.95834C0.799997 8.05471 0.858802 8.14713 0.963478 8.21527C1.06815 8.28342 1.21012 8.3217 1.35816 8.3217L22.9256 8.3217C23.2362 8.3217 23.3121 8.43545 23.0904 8.58171L15.4948 13.5219C14.9676 13.8645 15.7584 14.3793 16.2856 14.0361L24.4823 8.72537C24.702 8.58301 24.8817 8.63306 24.8817 8.83132L24.8817 14.8863C24.8817 14.9829 24.9406 15.0754 25.0455 15.1437C25.1503 15.212 25.2925 15.2503 25.4408 15.2503C25.5891 15.2503 25.7314 15.212 25.8362 15.1437C25.9411 15.0754 26 14.9829 26 14.8863L26 1.03101C26 0.934465 25.9411 0.841876 25.8362 0.77361C25.7314 0.705344 25.5891 0.666992 25.4408 0.666992C25.2925 0.666992 25.1503 0.705344 25.0455 0.77361C24.9406 0.841876 24.8817 0.934465 24.8817 1.03101L24.8817 7.07625C24.8817 7.27646 24.702 7.32326 24.4823 7.1822L16.2886 1.88059Z" fill="white"/>
</svg>
